<svg xmlns="http://www.w3.org/2000/svg" width="26" height="26" viewBox="0 0 26 26">
  <defs>
    <style>
      .cls-1 {
        fill: #fff;
        fill-rule: evenodd;
      }
    </style>
  </defs>
  <path id="Calender" class="cls-1" d="M1867.39,2970.34a0.6,0.6,0,0,0-.6-0.59h-2.11a0.6,0.6,0,0,0-.6.59v2.06a0.593,0.593,0,0,0,.6.59h2.11a0.593,0.593,0,0,0,.6-0.59v-2.06h0Zm5.27,0a0.6,0.6,0,0,0-.61-0.59h-2.1a0.6,0.6,0,0,0-.61.59v2.06a0.6,0.6,0,0,0,.61.59h2.1a0.6,0.6,0,0,0,.61-0.59v-2.06Zm5.26,0a0.6,0.6,0,0,0-.6-0.59h-2.11a0.6,0.6,0,0,0-.6.59v2.06a0.593,0.593,0,0,0,.6.59h2.11a0.593,0.593,0,0,0,.6-0.59v-2.06Zm-10.53,5.15a0.593,0.593,0,0,0-.6-0.59h-2.11a0.593,0.593,0,0,0-.6.59v2.06a0.593,0.593,0,0,0,.6.59h2.11a0.593,0.593,0,0,0,.6-0.59v-2.06h0Zm5.27,0a0.6,0.6,0,0,0-.61-0.59h-2.1a0.6,0.6,0,0,0-.61.59v2.06a0.6,0.6,0,0,0,.61.59h2.1a0.6,0.6,0,0,0,.61-0.59v-2.06Zm5.26,0a0.593,0.593,0,0,0-.6-0.59h-2.11a0.593,0.593,0,0,0-.6.59v2.06a0.593,0.593,0,0,0,.6.59h2.11a0.593,0.593,0,0,0,.6-0.59v-2.06h0Zm3.77-16.59v3.14a2.6,2.6,0,0,1-2.64,2.57h-1.66a2.619,2.619,0,0,1-2.65-2.57v-3.16h-7.48v3.16a2.619,2.619,0,0,1-2.65,2.57h-1.66a2.6,2.6,0,0,1-2.64-2.57v-3.14a2.352,2.352,0,0,0-2.31,2.32v18.44a2.371,2.371,0,0,0,2.38,2.34h21.24a2.371,2.371,0,0,0,2.38-2.34v-18.44A2.352,2.352,0,0,0,1881.69,2958.9Zm-0.78,19.61a1.024,1.024,0,0,1-1.03,1.01h-17.81a1.024,1.024,0,0,1-1.03-1.01v-9.52a1.018,1.018,0,0,1,1.03-1.01h17.81a1.018,1.018,0,0,1,1.03,1.01v9.52h0Zm-17.97-15.59h1.64a0.894,0.894,0,0,0,.91-0.88v-5.16a0.9,0.9,0,0,0-.91-0.88h-1.64a0.892,0.892,0,0,0-.9.88v5.16A0.886,0.886,0,0,0,1862.94,2962.92Zm14.43,0h1.64a0.894,0.894,0,0,0,.91-0.88v-5.16a0.9,0.9,0,0,0-.91-0.88h-1.64a0.892,0.892,0,0,0-.9.88v5.16A0.886,0.886,0,0,0,1877.37,2962.92Z" transform="translate(-1858 -2956)"/>
</svg>
