<svg xmlns="http://www.w3.org/2000/svg" width="30" height="24" viewBox="0 0 30 24">
  <defs>
    <style>
      .cls-1 {
        fill: #fff;
        fill-rule: evenodd;
      }
    </style>
  </defs>
  <path id="Dashboard" class="cls-1" d="M1884.81,2895.34a15.371,15.371,0,0,0-3.2-4.88,14.88,14.88,0,0,0-4.78-3.25,14.65,14.65,0,0,0-11.66,0,14.99,14.99,0,0,0-4.78,3.25,15.529,15.529,0,0,0-2.03,19.05,1,1,0,0,0,.9.49h23.48a1,1,0,0,0,.9-0.49A15.485,15.485,0,0,0,1884.81,2895.34Zm-15.33-6.52a2.125,2.125,0,0,1,3.04,0,2.223,2.223,0,0,1,0,3.08,2.125,2.125,0,0,1-3.04,0A2.223,2.223,0,0,1,1869.48,2888.82Zm-7.68,14a2.113,2.113,0,0,1-3.03,0,2.209,2.209,0,0,1,0-3.09,2.113,2.113,0,0,1,3.03,0A2.209,2.209,0,0,1,1861.8,2902.82Zm3.22-7.64a2.125,2.125,0,0,1-3.04,0,2.235,2.235,0,0,1,0-3.09,2.125,2.125,0,0,1,3.04,0A2.235,2.235,0,0,1,1865.02,2895.18Zm9.48,0.14-1.69,6.52a3.31,3.31,0,0,1-.19,5.54,3.181,3.181,0,0,1-4.4-1.18,3.323,3.323,0,0,1,.72-4.17,3.138,3.138,0,0,1,1.79-.74l1.69-6.51a1.121,1.121,0,0,1,.5-0.68,1.009,1.009,0,0,1,.81-0.11,1.048,1.048,0,0,1,.64.51A1.07,1.07,0,0,1,1874.5,2895.32Zm2.48-.14a2.235,2.235,0,0,1,0-3.09,2.125,2.125,0,0,1,3.04,0,2.235,2.235,0,0,1,0,3.09A2.125,2.125,0,0,1,1876.98,2895.18Zm6.25,7.64a2.113,2.113,0,0,1-3.03,0,2.209,2.209,0,0,1,0-3.09,2.113,2.113,0,0,1,3.03,0A2.209,2.209,0,0,1,1883.23,2902.82Z" transform="translate(-1856 -2886)"/>
</svg>
