<svg xmlns="http://www.w3.org/2000/svg" width="28" height="23" viewBox="0 0 28 23">
  <defs>
    <style>
      .cls-1 {
        fill: #fff;
        fill-rule: evenodd;
      }
    </style>
  </defs>
  <path id="Graph" class="cls-1" d="M1884.31,3168.7a2.186,2.186,0,0,0-1.64-.7h-23.34a2.186,2.186,0,0,0-1.64.7,2.341,2.341,0,0,0-.69,1.69v18.22a2.341,2.341,0,0,0,.69,1.69,2.186,2.186,0,0,0,1.64.7h23.34a2.186,2.186,0,0,0,1.64-.7,2.341,2.341,0,0,0,.69-1.69v-18.22A2.341,2.341,0,0,0,1884.31,3168.7Zm-1.18,19.91a0.418,0.418,0,0,1-.14.33,0.412,0.412,0,0,1-.32.14h-23.34a0.412,0.412,0,0,1-.32-0.14,0.418,0.418,0,0,1-.14-0.33v-18.22a0.418,0.418,0,0,1,.14-0.33,0.412,0.412,0,0,1,.32-0.14h23.34a0.412,0.412,0,0,1,.32.14,0.418,0.418,0,0,1,.14.33v18.22h0Zm-22.4-7.19h3.74v5.75h-3.74v-5.75Zm5.6-7.67h3.74v13.42h-3.74v-13.42Zm5.6,3.83h3.74v9.59h-3.74v-9.59Zm5.6-5.75h3.74v15.34h-3.74v-15.34Z" transform="translate(-1857 -3168)"/>
</svg>
