<svg xmlns="http://www.w3.org/2000/svg" width="23" height="22" viewBox="0 0 23 22">
  <defs>
    <style>
      .cls-1 {
        fill: #fff;
        fill-rule: evenodd;
      }
    </style>
  </defs>
  <path id="Settings" class="cls-1" d="M371.547,1067.41a8.918,8.918,0,0,0,.846,1.92l-1.02,1.23a0.967,0.967,0,0,0,.079,1.33l1.756,1.68a1.076,1.076,0,0,0,1.4.08l1.278-.97a9.691,9.691,0,0,0,2.085.85l0.192,1.57a1.035,1.035,0,0,0,1.044.89h2.485a1.035,1.035,0,0,0,1.045-.89l0.183-1.52a9.316,9.316,0,0,0,2.235-.86l1.237,0.93a1.086,1.086,0,0,0,1.4-.07l1.757-1.68a0.976,0.976,0,0,0,.079-1.34l-0.961-1.17a8.5,8.5,0,0,0,.92-2.1l1.481-.16a1.025,1.025,0,0,0,.933-1v-2.38a1.025,1.025,0,0,0-.933-1l-1.461-.16a8.686,8.686,0,0,0-.882-2.08l0.9-1.08a0.979,0.979,0,0,0-.079-1.34l-1.753-1.68a1.086,1.086,0,0,0-1.4-.07l-1.1.83a9.291,9.291,0,0,0-2.285-.91l-0.167-1.37a1.035,1.035,0,0,0-1.045-.89h-2.485a1.035,1.035,0,0,0-1.044.89l-0.167,1.37a9.727,9.727,0,0,0-2.344.94l-1.144-.86a1.088,1.088,0,0,0-1.4.07l-1.756,1.68a0.976,0.976,0,0,0-.079,1.34l0.957,1.16a8.345,8.345,0,0,0-.866,2.1l-1.532.16a1.025,1.025,0,0,0-.932,1v2.38a1.025,1.025,0,0,0,.932,1Zm9-6.43a3.934,3.934,0,1,1-4.108,3.93A4.025,4.025,0,0,1,380.551,1060.98Zm14.486,13.54" transform="translate(-369 -1054)"/>
</svg>
