<svg xmlns="http://www.w3.org/2000/svg" width="18" height="24" viewBox="0 0 18 24">
  <defs>
    <style>
      .cls-1 {
        fill: #fff;
        fill-rule: evenodd;
      }
    </style>
  </defs>
  <path id="User" class="cls-1" d="M1871,3038.74c2.63,0,4.76-2.63,4.76-5.87s-0.7-5.87-4.76-5.87-4.76,2.63-4.76,5.87S1868.37,3038.74,1871,3038.74Zm-9,8.96h0Zm18,0.15h0Zm-0.01-.39c-0.09-5.65-.82-7.25-6.38-8.27a3.877,3.877,0,0,1-5.22,0c-5.5,1.01-6.27,2.59-6.38,8.09a1.027,1.027,0,0,1-.01.42v0.59s1.33,2.71,9,2.71,9-2.71,9-2.71v-0.44A2.231,2.231,0,0,1,1879.99,3047.46Z" transform="translate(-1862 -3027)"/>
</svg>
